<svg fill="none" height="15" viewBox="0 0 15 15" width="15" xmlns="http://www.w3.org/2000/svg"><path clip-rule="evenodd" d="m7.5 1c.27614 0 .5.22386.5.5v3c0 .27614-.22386.5-.5.5s-.5-.22386-.5-.5v-3c0-.27614.22386-.5.5-.5zm-4.35355 2.14645c.19526-.19527.51184-.19527.7071 0l1 1c.19527.19526.19527.51184 0 .7071-.19526.19527-.51184.19527-.7071 0l-1-1c-.19527-.19526-.19527-.51184 0-.7071zm8.70715 0c.1952.19526.1952.51184 0 .7071l-1 1c-.1953.19527-.5119.19527-.7072 0-.19522-.19526-.19522-.51184 0-.7071l1-1c.1953-.19527.5119-.19527.7072 0zm-10.8536 4.35355c0-.27614.22386-.5.5-.5h3c.27614 0 .5.22386.5.5s-.22386.5-.5.5h-3c-.27614 0-.5-.22386-.5-.5zm12.5.5h-3c-.2761 0-.5-.22386-.5-.5s.2239-.5.5-.5h3c.2761 0 .5.22386.5.5s-.2239.5-.5.5zm-8.64645 2.1464c.19527.1953.19527.5119 0 .7072l-1 1c-.19526.1952-.51184.1952-.7071 0-.19527-.1953-.19527-.5119 0-.7072l1-1c.19526-.19522.51184-.19522.7071 0zm6.29285 1.7072-1-1c-.19522-.1953-.19522-.5119 0-.7072.1953-.19522.5119-.19522.7072 0l1 1c.1952.1953.1952.5119 0 .7072-.1953.1952-.5119.1952-.7072 0zm-3.6464-1.8536c.27614 0 .5.2239.5.5v3c0 .2761-.22386.5-.5.5s-.5-.2239-.5-.5v-3c0-.2761.22386-.5.5-.5z" fill="#151515" fill-rule="evenodd"/></svg>