<svg fill="none" height="15" viewBox="0 0 15 15" width="15" xmlns="http://www.w3.org/2000/svg"><path clip-rule="evenodd" d="m7.5 1c.27614 0 .5.22386.5.5v1.5h1.5c.8284 0 1.5.67157 1.5 1.5v1c0 .27614-.2239.5-.5.5s-.5-.22386-.5-.5v-1c0-.27614-.22386-.5-.5-.5h-1.5v3h.5c1.38071 0 2.5 1.11929 2.5 2.5 0 1.3807-1.11929 2.5-2.5 2.5h-.5v1.5c0 .2761-.22386.5-.5.5s-.5-.2239-.5-.5v-1.5h-1.5c-.82843 0-1.5-.6716-1.5-1.5v-1c0-.27614.22386-.5.5-.5s.5.22386.5.5v1c0 .2761.22386.5.5.5h1.5v-3h-.5c-1.38071 0-2.5-1.11929-2.5-2.5s1.11929-2.5 2.5-2.5h.5v-1.5c0-.27614.22386-.5.5-.5zm-.5 3h-.5c-.82843 0-1.5.67157-1.5 1.5s.67157 1.5 1.5 1.5h.5zm1 4v3h.5c.82843 0 1.5-.6716 1.5-1.5 0-.82843-.67157-1.5-1.5-1.5z" fill="#151515" fill-rule="evenodd"/></svg>