<svg viewBox="0 0 32 32" xmlns="http://www.w3.org/2000/svg"><path d="m27.93 23.31a13.85 13.85 0 0 0 2.07-7.31 14 14 0 1 0 -14 14 13.8 13.8 0 0 0 5.39-1.08 1 1 0 1 0 -.77-1.84 12.05 12.05 0 1 1 5-4 3.48 3.48 0 1 0 2.28.19zm-1.43 4.69a1.5 1.5 0 1 1 1.5-1.5 1.5 1.5 0 0 1 -1.5 1.5z"/><path d="m7 16a9 9 0 1 0 9-9 1 1 0 0 0 0 2 7 7 0 1 1 -7 7 7.15 7.15 0 0 1 .36-2.21 3.34 3.34 0 0 0 1.14.21 3.5 3.5 0 1 0 -3.5-3.5 3.46 3.46 0 0 0 .69 2.07s0 0 0 0a8.89 8.89 0 0 0 -.69 3.43zm3.5-7a1.5 1.5 0 1 1 -1.5 1.5 1.5 1.5 0 0 1 1.5-1.5z"/><path d="m16 19a3 3 0 1 0 -3-3 3 3 0 0 0 3 3zm0-4a1 1 0 1 1 -1 1 1 1 0 0 1 1-1z"/></svg>